<svg width="1440" height="534" viewBox="0 0 1440 534" fill="none" xmlns="http://www.w3.org/2000/svg">
<path d="M13.1171 947.274L87.0276 764.819C735.075 625.926 1038.29 217.563 1697.6 137.074L1661.8 323.812C1036.26 453.497 785.142 884.522 13.1171 947.274Z" fill="url(#paint0_linear_0_1)" fill-opacity="0.9"/>
<path d="M-179.804 818.4L-108.738 628.882C541.322 494.989 839.147 73.2317 1501.62 0.615996L1469.02 195.282C841.457 319.94 596.514 766.311 -179.804 818.4Z" fill="url(#paint1_linear_0_1)"/>
<path d="M-53.5889 691.359C-115.737 691.359 -146.812 659.865 -146.812 596.877V571.892H-71.2256V608.845C-71.2256 615.983 -69.8258 621.582 -67.0264 625.642C-64.2269 629.701 -59.7477 631.73 -53.5889 631.73C-42.6709 631.73 -37.2119 623.542 -37.2119 607.165C-37.2119 593.448 -40.0814 583.229 -45.8203 576.511C-51.5592 569.652 -58.5579 563.073 -66.8164 556.774L-106.919 525.91C-119.517 516.112 -129.105 505.754 -135.684 494.836C-142.262 483.918 -145.552 468.731 -145.552 449.274C-145.552 431.218 -141.283 416.311 -132.744 404.553C-124.066 392.795 -112.658 384.047 -98.5205 378.308C-84.2432 372.569 -68.846 369.699 -52.3291 369.699C8.69954 369.699 39.2139 400.144 39.2139 461.032V466.911H-38.4717V454.943C-38.4717 448.645 -39.5915 442.556 -41.8311 436.677C-43.9307 430.798 -48.1299 427.858 -54.4287 427.858C-65.0667 427.858 -70.3857 433.457 -70.3857 444.655C-70.3857 455.993 -65.9066 464.882 -56.9482 471.32L-10.3369 505.334C4.22038 515.832 16.3981 528.29 26.1963 542.707C36.1344 557.124 41.1035 576.301 41.1035 600.236C41.1035 629.911 32.6351 652.517 15.6982 668.054C-1.09863 683.591 -24.1943 691.359 -53.5889 691.359ZM42.6992 688V318.469H119.965V404.343C124.024 392.585 130.253 383.907 138.651 378.308C147.05 372.569 156.848 369.699 168.046 369.699C189.882 369.699 205.769 376.558 215.707 390.275C225.645 403.993 230.614 422.399 230.614 445.495V688H154.608V450.324C154.608 443.465 153.139 437.867 150.199 433.527C147.4 429.188 142.921 427.019 136.762 427.019C131.583 427.019 127.453 429.258 124.374 433.737C121.435 438.216 119.965 443.535 119.965 449.694V688H42.6992ZM238.299 353.742V291.174H313.465V353.742H238.299ZM238.299 688V373.059H313.465V688H238.299ZM413.322 691.359C350.614 691.359 319.26 658.815 319.26 593.728V467.331C319.26 437.657 327.588 414.001 344.245 396.364C360.902 378.588 383.928 369.699 413.322 369.699C442.857 369.699 465.952 378.588 482.609 396.364C499.266 414.001 507.595 437.657 507.595 467.331V593.728C507.595 658.815 476.171 691.359 413.322 691.359ZM413.322 633.41C419.621 633.41 424.1 631.171 426.76 626.691C429.559 622.072 430.959 616.263 430.959 609.265V455.363C430.959 437.027 425.08 427.858 413.322 427.858C401.564 427.858 395.686 437.027 395.686 455.363V609.265C395.686 616.263 397.015 622.072 399.675 626.691C402.474 631.171 407.023 633.41 413.322 633.41ZM514.02 688V373.059H589.186V413.161C591.985 401.123 597.164 390.905 604.723 382.507C612.421 373.968 623.059 369.699 636.637 369.699C658.473 369.699 674.29 376.418 684.088 389.855C694.026 403.293 698.995 421.7 698.995 445.075V688H624.879V452.844C624.879 446.685 623.619 441.016 621.1 435.837C618.58 430.518 614.241 427.858 608.082 427.858C602.343 427.858 598.074 429.888 595.274 433.947C592.615 437.867 590.935 442.836 590.235 448.854C589.535 454.733 589.186 460.612 589.186 466.491V688H514.02Z" fill="#E6FF4A"/>
<path d="M812.5 532C801.348 532 790.993 529.787 781.435 525.362C771.956 520.847 763.632 514.57 756.463 506.533C749.373 498.405 743.837 488.968 739.855 478.221C735.952 467.384 734 455.643 734 443C734 430.357 735.952 418.662 739.855 407.915C743.837 397.078 749.373 387.64 756.463 379.603C763.632 371.475 771.956 365.198 781.435 360.773C790.993 356.258 801.348 354 812.5 354C823.652 354 833.967 356.258 843.446 360.773C853.005 365.198 861.329 371.475 868.418 379.603C875.587 387.64 881.123 397.078 885.026 407.915C889.009 418.662 891 430.357 891 443C891 455.643 889.009 467.384 885.026 478.221C881.123 488.968 875.587 498.405 868.418 506.533C861.329 514.57 853.005 520.847 843.446 525.362C833.967 529.787 823.652 532 812.5 532ZM812.5 514.525C824.05 514.525 834.286 511.319 843.207 504.907C852.128 498.405 859.138 489.735 864.236 478.898C869.413 468.061 872.002 456.095 872.002 443C872.002 429.815 869.413 417.849 864.236 407.102C859.138 396.265 852.128 387.64 843.207 381.228C834.286 374.726 824.05 371.475 812.5 371.475C801.03 371.475 790.794 374.726 781.793 381.228C772.872 387.64 765.822 396.265 760.645 407.102C755.547 417.849 752.998 429.815 752.998 443C752.998 456.095 755.547 468.061 760.645 478.898C765.822 489.735 772.872 498.405 781.793 504.907C790.794 511.319 801.03 514.525 812.5 514.525ZM811.783 502.333C803.499 502.333 796.848 499.669 791.83 494.341C786.811 489.013 784.302 481.562 784.302 471.989V417.668C784.302 406.289 786.493 397.665 790.874 391.795C795.255 385.924 802.384 382.989 812.261 382.989C820.306 382.989 826.997 385.247 832.334 389.763C837.671 394.188 840.339 400.961 840.339 410.082V430.808H817.757V417.126C817.757 410.173 815.925 406.696 812.261 406.696C810.031 406.696 808.597 407.508 807.96 409.134C807.322 410.669 807.004 412.746 807.004 415.365V470.77C807.004 472.757 807.442 474.744 808.318 476.731C809.274 478.627 810.588 479.575 812.261 479.575C815.925 479.575 817.757 476.64 817.757 470.77V450.586H840.817V472.667C840.817 492.444 831.139 502.333 811.783 502.333Z" fill="#E6FF4A"/>
<path d="M960.046 688V444.235H946.398V386.916H960.046V365.5C960.046 331.626 976.983 314.689 1010.86 314.689C1026.81 314.689 1039.69 316.719 1049.49 320.778V367.18C1045.99 366.48 1043.68 366.13 1042.56 366.13C1038.22 366.13 1035.56 367.74 1034.58 370.959C1033.6 374.038 1033.11 378.028 1033.11 382.927V386.916H1049.49V445.075H1034.58V688H960.046ZM1109.45 691.359C1091.96 691.359 1078.59 687.3 1069.35 679.182C1060.25 671.063 1054.02 659.935 1050.67 645.798C1047.31 631.66 1045.63 615.633 1045.63 597.717C1045.63 578.54 1047.52 562.863 1051.29 550.686C1055.07 538.368 1061.51 528.29 1070.61 520.451C1079.85 512.613 1092.52 505.964 1108.61 500.505L1155.23 484.548V452.214C1155.23 435.277 1149.7 426.809 1138.64 426.809C1128.56 426.809 1123.52 433.667 1123.52 447.385V466.281H1050.46C1050.32 465.161 1050.25 463.762 1050.25 462.082C1050.25 460.262 1050.25 458.233 1050.25 455.993C1050.25 424.639 1057.59 402.453 1072.29 389.436C1087.13 376.278 1110.57 369.699 1142.63 369.699C1159.42 369.699 1174.47 372.709 1187.77 378.728C1201.07 384.606 1211.57 393.355 1219.26 404.973C1227.1 416.59 1231.02 430.938 1231.02 448.015V688H1156.28V650.627C1152.64 663.785 1146.62 673.863 1138.22 680.861C1129.82 687.86 1120.23 691.359 1109.45 691.359ZM1139.06 632.99C1145.22 632.99 1149.42 630.401 1151.66 625.222C1153.9 620.043 1155.02 614.444 1155.02 608.425V520.661C1144.66 524.86 1136.61 530.179 1130.87 536.618C1125.13 542.917 1122.26 552.225 1122.26 564.543V605.065C1122.26 623.682 1127.86 632.99 1139.06 632.99ZM1324.79 691.359C1262.64 691.359 1231.57 659.865 1231.57 596.877V571.892H1307.15V608.845C1307.15 615.983 1308.55 621.582 1311.35 625.642C1314.15 629.701 1318.63 631.73 1324.79 631.73C1335.71 631.73 1341.17 623.542 1341.17 607.165C1341.17 593.448 1338.3 583.229 1332.56 576.511C1326.82 569.652 1319.82 563.073 1311.56 556.774L1271.46 525.91C1258.86 516.112 1249.27 505.754 1242.7 494.836C1236.12 483.918 1232.83 468.731 1232.83 449.274C1232.83 431.218 1237.1 416.311 1245.63 404.553C1254.31 392.795 1265.72 384.047 1279.86 378.308C1294.14 372.569 1309.53 369.699 1326.05 369.699C1387.08 369.699 1417.59 400.144 1417.59 461.032V466.911H1339.91V454.943C1339.91 448.645 1338.79 442.556 1336.55 436.677C1334.45 430.798 1330.25 427.858 1323.95 427.858C1313.31 427.858 1307.99 433.457 1307.99 444.655C1307.99 455.993 1312.47 464.882 1321.43 471.32L1368.04 505.334C1382.6 515.832 1394.78 528.29 1404.58 542.707C1414.51 557.124 1419.48 576.301 1419.48 600.236C1419.48 629.911 1411.01 652.517 1394.08 668.054C1377.28 683.591 1354.18 691.359 1324.79 691.359Z" fill="#E6FF4A"/>
<defs>
<linearGradient id="paint0_linear_0_1" x1="980.919" y1="614.568" x2="891.26" y2="425.658" gradientUnits="userSpaceOnUse">
<stop stop-color="#4268FF"/>
<stop offset="0.16" stop-color="#7590FF"/>
<stop offset="0.525261" stop-color="#2D56FA"/>
<stop offset="0.968026" stop-color="#C7D0FF"/>
</linearGradient>
<linearGradient id="paint1_linear_0_1" x1="788.693" y1="487.42" x2="693.504" y2="288.96" gradientUnits="userSpaceOnUse">
<stop stop-color="#4268FF"/>
<stop offset="0.16" stop-color="#6886FF"/>
<stop offset="0.618327" stop-color="#2D56FA"/>
<stop offset="0.968026" stop-color="#8899F4"/>
</linearGradient>
</defs>
</svg>
