<svg width="15" height="9" viewBox="0 0 15 9" fill="none" xmlns="http://www.w3.org/2000/svg">
<path d="M14.6614 2.07208L8.09894 8.63458C8.03799 8.6956 7.96561 8.744 7.88595 8.77703C7.80628 8.81005 7.72088 8.82705 7.63464 8.82705C7.5484 8.82705 7.46301 8.81005 7.38334 8.77703C7.30367 8.744 7.23129 8.6956 7.17034 8.63458L0.607845 2.07208C0.484706 1.94894 0.415527 1.78193 0.415527 1.60779C0.415527 1.43364 0.484706 1.26663 0.607845 1.14349C0.730985 1.02035 0.897997 0.951172 1.07214 0.951172C1.24629 0.951172 1.4133 1.02035 1.53644 1.14349L7.63464 7.24251L13.7328 1.14349C13.7938 1.08252 13.8662 1.03415 13.9459 1.00115C14.0255 0.968155 14.1109 0.951172 14.1971 0.951172C14.2834 0.951172 14.3688 0.968155 14.4484 1.00115C14.5281 1.03415 14.6005 1.08252 14.6614 1.14349C14.7224 1.20446 14.7708 1.27685 14.8038 1.35651C14.8368 1.43618 14.8538 1.52156 14.8538 1.60779C14.8538 1.69401 14.8368 1.7794 14.8038 1.85906C14.7708 1.93873 14.7224 2.01111 14.6614 2.07208Z" fill="#FFF"/>
</svg>
